<svg id="trophy" xmlns="http://www.w3.org/2000/svg" width="82.97" height="82.97" viewBox="0 0 82.97 82.97">
  <g id="Group_3" data-name="Group 3">
    <path id="Path_15" data-name="Path 15" d="M78.822,4.149H66.376V0H16.594V4.149H4.149A3.919,3.919,0,0,0,0,8.3v9.956A18.818,18.818,0,0,0,16.594,36.922v.415a24.951,24.951,0,0,0,19.5,24.476l-2.9,8.712H23.647a3.985,3.985,0,0,0-3.734,2.9L16.594,82.97H66.376l-3.319-9.542a3.985,3.985,0,0,0-3.734-2.9H49.782l-2.9-8.712a24.951,24.951,0,0,0,19.5-24.476v-.415A18.818,18.818,0,0,0,82.97,18.253V8.3A3.919,3.919,0,0,0,78.822,4.149ZM16.594,28.625A11.079,11.079,0,0,1,8.3,18.253V12.446h8.3Zm33.188,12.86-8.3-4.563-8.3,4.563,2.074-8.3-6.223-8.3h8.712l3.734-8.3,3.734,8.3h8.712l-6.223,8.3ZM74.673,18.253c0,4.978-3.734,9.542-8.3,10.371V12.446h8.3Z" fill="#fcc11d"/>
  </g>
</svg>
