<svg xmlns="http://www.w3.org/2000/svg" width="91.752" height="83.189" viewBox="0 0 91.752 83.189">
  <g id="mountains" transform="translate(0 0)">
    <path id="Path_10" data-name="Path 10" d="M389.789,359.049,378.3,341.238H363.641l9.574,14.837a8.219,8.219,0,0,1,.84,7.2h13.431a2.741,2.741,0,0,0,2.3-4.228Zm0,0" transform="translate(-298.476 -280.088)" fill="#0247d0"/>
    <path id="Path_11" data-name="Path 11" d="M324.7,239.5h14.655l-9.214-14.279a2.742,2.742,0,0,0-4.607,0L320.508,233Zm0,0" transform="translate(-263.073 -183.827)" fill="#0247d0"/>
    <path id="Path_12" data-name="Path 12" d="M127.188,44.32h24.986l-9.751-15.11V21.5h20.163a2.741,2.741,0,0,0,2.037-4.576l-5.559-6.173,5.559-6.173A2.741,2.741,0,0,0,162.586,0h-22.9a2.742,2.742,0,0,0-2.742,2.742V29.21Zm0,0" transform="translate(-104.396 0)" fill="#0247d0"/>
    <path id="Path_13" data-name="Path 13" d="M70.236,309.873a2.743,2.743,0,0,0-.1-2.8L51.316,277.918H19.254L.438,307.075a2.741,2.741,0,0,0,2.3,4.228H67.829a2.742,2.742,0,0,0,2.407-1.43Zm0,0" transform="translate(0 -228.114)" fill="#0247d0"/>
  </g>
</svg>
