<svg xmlns="http://www.w3.org/2000/svg" width="93.958" height="71.811" viewBox="0 0 93.958 71.811">
  <g id="bulleted-list" transform="translate(0 -10)">
    <path id="Path_14" data-name="Path 14" d="M13.423,67.449H6.711a7.2,7.2,0,0,0,0,14.362h6.711a7.2,7.2,0,0,0,0-14.362Zm0-28.724H6.711a7.2,7.2,0,0,0,0,14.362h6.711a7.2,7.2,0,0,0,0-14.362Zm0-28.724H6.711A6.957,6.957,0,0,0,0,17.181a6.957,6.957,0,0,0,6.711,7.181h6.711a6.957,6.957,0,0,0,6.711-7.181A6.957,6.957,0,0,0,13.423,10ZM40.268,24.362H87.247a6.957,6.957,0,0,0,6.711-7.181A6.957,6.957,0,0,0,87.247,10H40.268a6.957,6.957,0,0,0-6.711,7.181A6.957,6.957,0,0,0,40.268,24.362ZM87.247,38.724H40.268a7.2,7.2,0,0,0,0,14.362H87.247a7.2,7.2,0,0,0,0-14.362Zm0,28.724H40.268a7.2,7.2,0,0,0,0,14.362H87.247a7.2,7.2,0,0,0,0-14.362Z" transform="translate(0 0)" fill="#f56221"/>
  </g>
</svg>
