<svg id="seo" xmlns="http://www.w3.org/2000/svg" width="92" height="92" viewBox="0 0 92 92">
  <g id="Group_2" data-name="Group 2" transform="translate(1.533 1.533)">
    <path id="Path_4" data-name="Path 4" d="M269.133,52.467h15.333A44.517,44.517,0,0,0,240,8V23.333A29.166,29.166,0,0,1,269.133,52.467Zm0,0" transform="translate(-195.533 -8)" fill="#00a759"/>
    <path id="Path_5" data-name="Path 5" d="M52.467,23.333V8A44.517,44.517,0,0,0,8,52.467H23.333A29.166,29.166,0,0,1,52.467,23.333Zm0,0" transform="translate(-8 -8)" fill="#00a759"/>
    <path id="Path_6" data-name="Path 6" d="M269.133,240A29.166,29.166,0,0,1,240,269.133v15.333A44.517,44.517,0,0,0,284.467,240Zm0,0" transform="translate(-195.533 -195.533)" fill="#00a759"/>
    <path id="Path_7" data-name="Path 7" d="M23.333,240H8a44.517,44.517,0,0,0,44.467,44.467V269.133A29.166,29.166,0,0,1,23.333,240Zm0,0" transform="translate(-8 -195.533)" fill="#00a759"/>
    <path id="Path_8" data-name="Path 8" d="M195.6,181.8A13.8,13.8,0,1,1,181.8,168,13.8,13.8,0,0,1,195.6,181.8Zm0,0" transform="translate(-137.333 -137.333)" fill="#00a759"/>
  </g>
  <path id="Path_9" data-name="Path 9" d="M46,0A46,46,0,1,0,92,46,46,46,0,0,0,46,0ZM88.9,44.467H76.589A30.654,30.654,0,0,0,47.533,15.411V3.1A42.975,42.975,0,0,1,88.9,44.467ZM46,58.267A12.267,12.267,0,1,1,58.267,46,12.266,12.266,0,0,1,46,58.267ZM44.467,30.744A15.359,15.359,0,0,0,30.745,44.467H18.478A27.591,27.591,0,0,1,44.467,18.478ZM30.745,47.533A15.359,15.359,0,0,0,44.467,61.255V73.522A27.591,27.591,0,0,1,18.478,47.533ZM47.533,61.255A15.359,15.359,0,0,0,61.255,47.533H73.522A27.591,27.591,0,0,1,47.533,73.522ZM61.255,44.467A15.359,15.359,0,0,0,47.533,30.744V18.478A27.591,27.591,0,0,1,73.522,44.467ZM44.467,3.1V15.411A30.654,30.654,0,0,0,15.411,44.467H3.1A42.975,42.975,0,0,1,44.467,3.1ZM3.1,47.533H15.411A30.654,30.654,0,0,0,44.467,76.589V88.9A42.975,42.975,0,0,1,3.1,47.533ZM47.533,88.9V76.589A30.654,30.654,0,0,0,76.589,47.533H88.9A42.975,42.975,0,0,1,47.533,88.9Zm0,0" fill="#00a759"/>
</svg>
