<svg xmlns="http://www.w3.org/2000/svg" width="47.7" height="36.3" viewBox="0 0 47.7 36.3">
  <g id="envelope" transform="translate(0 -57.75)">
    <g id="Group_10" data-name="Group 10" transform="translate(0 57.75)">
      <path id="Path_83" data-name="Path 83" d="M41.877,57.75H5.833A5.838,5.838,0,0,0,0,63.583V88.217A5.838,5.838,0,0,0,5.833,94.05H41.867A5.838,5.838,0,0,0,47.7,88.217V63.593A5.832,5.832,0,0,0,41.877,57.75Zm3.168,30.467a3.172,3.172,0,0,1-3.168,3.168H5.833a3.172,3.172,0,0,1-3.168-3.168V63.593a3.172,3.172,0,0,1,3.168-3.168H41.867a3.172,3.172,0,0,1,3.168,3.168V88.217Z" transform="translate(0 -57.75)" fill="#a53692"/>
      <path id="Path_84" data-name="Path 84" d="M80.332,121.7,92,111.236a1.335,1.335,0,0,0-1.786-1.984L74.124,123.692l-3.139-2.8c-.01-.01-.02-.02-.02-.03a1.972,1.972,0,0,0-.217-.188L57.978,109.243a1.335,1.335,0,0,0-1.777,1.994l11.8,10.551-11.755,11a1.338,1.338,0,0,0-.059,1.885,1.363,1.363,0,0,0,.977.424,1.335,1.335,0,0,0,.908-.355l11.932-11.162,3.237,2.892a1.329,1.329,0,0,0,1.777-.01l3.326-2.981,11.863,11.271a1.336,1.336,0,0,0,1.885-.049,1.338,1.338,0,0,0-.049-1.885Z" transform="translate(-50.25 -103.854)" fill="#a53692"/>
    </g>
  </g>
</svg>
