<svg xmlns="http://www.w3.org/2000/svg" width="41" height="41" viewBox="0 0 41 41">
  <g id="Group_16" data-name="Group 16" transform="translate(-295 -3250)">
    <g id="Ellipse_9" data-name="Ellipse 9" transform="translate(295 3250)" fill="#fff" stroke="#bfbfbf" stroke-width="1">
      <circle cx="20.5" cy="20.5" r="20.5" stroke="none"/>
      <circle cx="20.5" cy="20.5" r="20" fill="none"/>
    </g>
    <g id="book" transform="translate(304.828 3204.197)">
      <g id="Group_8" data-name="Group 8" transform="translate(0 58.303)">
        <path id="Path_70" data-name="Path 70" d="M20.656,59.561H19.267v-.474a.408.408,0,0,0-.294-.408A11.5,11.5,0,0,0,16.03,58.3a7.593,7.593,0,0,0-5.5,2.041,7.513,7.513,0,0,0-5.5-2.041,11.5,11.5,0,0,0-2.944.376.408.408,0,0,0-.294.408v.47H.408A.408.408,0,0,0,0,59.965V73.006a.407.407,0,0,0,.608.355,14.4,14.4,0,0,1,9.824-.817h.1a.409.409,0,0,0,.1,0,14.151,14.151,0,0,1,9.824.817.408.408,0,0,0,.612-.351V59.969A.408.408,0,0,0,20.656,59.561ZM.817,72.357V60.377h.976v10.24a.408.408,0,0,0,.47.408,17.868,17.868,0,0,1,2.552-.2,10.591,10.591,0,0,1,3.487.527A15.01,15.01,0,0,0,.817,72.357Zm4-2.348a17.965,17.965,0,0,0-2.221.143V59.41a11.261,11.261,0,0,1,2.421-.269,6.666,6.666,0,0,1,5.1,2l.012,10.171A9.544,9.544,0,0,0,4.814,70.009Zm6.124-8.868a6.727,6.727,0,0,1,5.1-2,11.31,11.31,0,0,1,2.421.269V70.152a17.96,17.96,0,0,0-2.209-.147,9.624,9.624,0,0,0-5.308,1.3Zm9.305,11.216a15.013,15.013,0,0,0-7.5-1.008,10.616,10.616,0,0,1,3.5-.527,17.862,17.862,0,0,1,2.568.2.408.408,0,0,0,.47-.408V60.377h.976Z" transform="translate(0 -58.303)" fill="#9a9a9a"/>
      </g>
    </g>
  </g>
</svg>
