<svg xmlns="http://www.w3.org/2000/svg" width="41" height="41" viewBox="0 0 41 41">
  <g id="Group_17" data-name="Group 17" transform="translate(-295 -3317)">
    <g id="Ellipse_10" data-name="Ellipse 10" transform="translate(295 3317)" fill="#fff" stroke="#afafaf" stroke-width="1">
      <circle cx="20.5" cy="20.5" r="20.5" stroke="none"/>
      <circle cx="20.5" cy="20.5" r="20" fill="none"/>
    </g>
    <g id="teacher" transform="translate(301.108 3323.643)">
      <path id="Path_79" data-name="Path 79" d="M29.465,33.465A1.467,1.467,0,0,0,30.931,32H30.2a.733.733,0,1,1-1.465,0H28A1.467,1.467,0,0,0,29.465,33.465Z" transform="translate(-14.574 -19.643)" fill="#9e9e9e"/>
      <path id="Path_80" data-name="Path 80" d="M25.861,5.733V5a4.769,4.769,0,0,0-3.55,1.587l.546.489A4.036,4.036,0,0,1,25.861,5.733Z" transform="translate(-10.969 -2.535)" fill="#9e9e9e"/>
      <path id="Path_81" data-name="Path 81" d="M20.741,11.866l-.634-.367a4.723,4.723,0,0,0-.366.794l.691.244A3.972,3.972,0,0,1,20.741,11.866Z" transform="translate(-9.34 -6.653)" fill="#9e9e9e"/>
      <path id="Path_82" data-name="Path 82" d="M22.81,18.98A8.016,8.016,0,0,0,21.9,13.5,6.065,6.065,0,0,1,21.12,10.5V7.228a6.228,6.228,0,1,0-12.456,0V10.5a6.188,6.188,0,0,1-.8,3.039,8.038,8.038,0,0,0-1.033,4.209,7.9,7.9,0,0,0,.145,1.228A5.8,5.8,0,0,0,5,23.348v.366H24.784v-.366A5.8,5.8,0,0,0,22.81,18.98ZM7.568,17.723A7.3,7.3,0,0,1,8.506,13.9a6.925,6.925,0,0,0,.89-3.4V7.228a5.5,5.5,0,0,1,10.991,0V10.5a6.8,6.8,0,0,0,.873,3.371,7.259,7.259,0,0,1,.888,4.611,5.868,5.868,0,0,0-.984-.52l-3.759-1.538a1.1,1.1,0,0,1-.683-1.017V15.14a6.783,6.783,0,0,0,2.931-5.586V8.27A3.281,3.281,0,0,0,18.417,5.7l-1.086-.868-.2.405A2.273,2.273,0,0,1,15.085,6.5H11.961a1.834,1.834,0,0,0-1.832,1.832V9.555a6.784,6.784,0,0,0,2.931,5.586V15.4a1.1,1.1,0,0,1-.683,1.017L8.619,17.958a5.869,5.869,0,0,0-.981.518,7.01,7.01,0,0,1-.07-.754ZM17.823,7.961H16.357a1.1,1.1,0,0,0-1.032.733h-.868a1.1,1.1,0,0,0-1.032-.733H11.961a1.1,1.1,0,0,0-1.1,1.1V8.327a1.1,1.1,0,0,1,1.1-1.1h3.124a3,3,0,0,0,2.47-1.283l.4.323a2.552,2.552,0,0,1,.962,2v.79A1.1,1.1,0,0,0,17.823,7.961Zm.366,1.1v.366a.733.733,0,0,1-.733.733h-.733a.733.733,0,0,1-.733-.733V9.06a.367.367,0,0,1,.366-.366h1.465A.367.367,0,0,1,18.189,9.06Zm-4.4,0v.366a.733.733,0,0,1-.733.733h-.733a.733.733,0,0,1-.733-.733V9.06a.367.367,0,0,1,.366-.366h1.465A.367.367,0,0,1,13.793,9.06Zm-1.465,1.832h.733a1.467,1.467,0,0,0,1.465-1.465h.733a1.467,1.467,0,0,0,1.465,1.465h.733a1.467,1.467,0,0,0,1.465-1.465v.129a6.055,6.055,0,0,1-4.03,5.712,6.055,6.055,0,0,1-4.03-5.712V9.426A1.467,1.467,0,0,0,12.327,10.892ZM14.776,16l.116.039L15.008,16a6.847,6.847,0,0,0,1-.422,1.818,1.818,0,0,0,.435,1.021l-1.546,1.16L13.345,16.6a1.818,1.818,0,0,0,.435-1.021,6.811,6.811,0,0,0,1,.422Zm-2.121,1.1c.028-.011.053-.027.08-.04l1.629,1.222-1.212,1.454L12.064,17.34Zm2.237,1.692.12.144.558,4.047H14.213l.559-4.047Zm.528-.51,1.629-1.222c.027.013.052.029.08.04l.591.241-1.088,2.394ZM8.9,18.637l2.489-1.019L12.968,21.1l.917-1.1-.412,2.983H9.4v-2.2H8.664v2.2H5.746A5.07,5.07,0,0,1,8.9,18.637ZM21.12,22.982v-2.2h-.733v2.2H16.31L15.9,20l.917,1.1L18.4,17.618l2.489,1.019a5.071,5.071,0,0,1,3.15,4.345Z" fill="#9e9e9e"/>
    </g>
  </g>
</svg>
