<svg xmlns="http://www.w3.org/2000/svg" width="41" height="41" viewBox="0 0 41 41">
  <g id="Group_18" data-name="Group 18" transform="translate(-295 -3378)">
    <g id="Ellipse_11" data-name="Ellipse 11" transform="translate(295 3378)" fill="#fff" stroke="#afafaf" stroke-width="1">
      <circle cx="20.5" cy="20.5" r="20.5" stroke="none"/>
      <circle cx="20.5" cy="20.5" r="20" fill="none"/>
    </g>
    <g id="group" transform="translate(303.829 3384.078)">
      <g id="Group_9" data-name="Group 9" transform="translate(-0.001 3.975)">
        <path id="Path_71" data-name="Path 71" d="M24.18,8.956l0,0h0l-4.86-4.86a.4.4,0,0,0-.294-.119.4.4,0,0,0-.289.129l-1.5,1.62a.405.405,0,0,0,.006.558l.114.117-.6.6-.944-.236a2.473,2.473,0,0,0-2.351.668L11.738,9.436l-2-2A2.124,2.124,0,0,0,7.555,6.92a.413.413,0,0,0-.126.069l-.11.089-.267-.267.524-.524a.4.4,0,0,0,0-.573h0l-1.62-1.62a.4.4,0,0,0-.573,0h0L.118,9.359a.4.4,0,0,0,0,.573h0l1.62,1.62a.4.4,0,0,0,.573,0h0l.183-.183.96.96-.236.944A2.462,2.462,0,0,0,3.859,15.6l3.431,3.529v3.166a1.964,1.964,0,0,0,1.059,1.723,1.058,1.058,0,0,1,.561.935v.084H8.5a.4.4,0,0,0-.4.4h0v2.025a.4.4,0,0,0,.4.4h7.7a.4.4,0,0,0,.4-.4h0V25.441a.4.4,0,0,0-.4-.4h-.405v-.407l.642-.592a2.466,2.466,0,0,0,.978-1.96V17.332a2.133,2.133,0,0,0,1.264-.62l2.141-2.325a1.859,1.859,0,0,0,.452-1.914c-.065-.2.284-.834.7-1.325a.4.4,0,0,0,.278.117h0a.4.4,0,0,0,.285-.117l1.639-1.62A.4.4,0,0,0,24.18,8.956ZM2.024,10.693.977,9.646,5.669,4.953,6.717,6ZM7.325,18l-2.89-2.973A1.653,1.653,0,0,1,4,13.469L4.295,12.3a.4.4,0,0,0-.106-.384L3.066,10.8,6.479,7.383,7,7.907a.405.405,0,0,0,.54.029l.333-.268a1.318,1.318,0,0,1,1.289.34L11.4,10.241l0,0a1.421,1.421,0,0,0-.391.609,1.424,1.424,0,0,0-.821-.165,1.462,1.462,0,0,0-1.273,1.468v4.235A2.03,2.03,0,0,0,7.325,18Zm8.469,9.058H8.909V25.846h6.885Zm.81-4.984a1.678,1.678,0,0,1-.686,1.338l-.8.738a.4.4,0,0,0-.131.3v.585H9.719v-.084a1.865,1.865,0,0,0-.99-1.65,1.156,1.156,0,0,1-.63-1.008V18.376a1.213,1.213,0,0,1,.81-1.14v2.535h.81V12.156a.646.646,0,0,1,.543-.662.611.611,0,0,1,.471.154.6.6,0,0,1,.2.45v6.052h.81V11.289a.607.607,0,0,1,.607-.608l.056,0a.661.661,0,0,1,.552.677v6.79h.81V12.5a.607.607,0,0,1,.607-.608l.056,0a.661.661,0,0,1,.552.677v5.575h.81V14.806a1.213,1.213,0,0,1,.81,1.14Zm3.9-9.347h0a1.062,1.062,0,0,1-.268,1.1l-2.141,2.325a1.323,1.323,0,0,1-.68.367v-.572a2.028,2.028,0,0,0-1.62-1.984V12.575A1.466,1.466,0,0,0,14.5,11.092a1.441,1.441,0,0,0-.739.134,1.458,1.458,0,0,0-1.286-1.349c-.017,0-.034,0-.051,0l1.627-1.9a1.653,1.653,0,0,1,1.561-.432l1.166.291a.4.4,0,0,0,.384-.106l.752-.752,3.49,3.589C21.032,11,20.264,12.011,20.5,12.729Zm1.756-2.444L18.086,5.994l.956-1.03,4.275,4.275Z" transform="translate(0.001 -3.975)" fill="#ababab"/>
      </g>
    </g>
  </g>
</svg>
