<svg xmlns="http://www.w3.org/2000/svg" width="41" height="41" viewBox="0 0 41 41">
  <g id="Group_19" data-name="Group 19" transform="translate(-295 -3439)">
    <g id="Ellipse_12" data-name="Ellipse 12" transform="translate(295 3439)" fill="#fff" stroke="#ccc" stroke-width="1">
      <circle cx="20.5" cy="20.5" r="20.5" stroke="none"/>
      <circle cx="20.5" cy="20.5" r="20" fill="none"/>
    </g>
    <g id="seminar" transform="translate(304.109 3449.108)">
      <path id="Path_72" data-name="Path 72" d="M19.834,303.662l-.879-.305a2.124,2.124,0,0,0,.809-1.667v-.645a2.127,2.127,0,1,0-4.254,0v.645a2.124,2.124,0,0,0,.809,1.667l-.879.305a2.875,2.875,0,0,0-1.176.769,2.9,2.9,0,0,0-1.175-.769l-.879-.305a2.124,2.124,0,0,0,.809-1.667v-.645a2.127,2.127,0,1,0-4.254,0v.645a2.124,2.124,0,0,0,.809,1.667l-.879.305a2.9,2.9,0,0,0-1.175.769,2.876,2.876,0,0,0-1.176-.769l-.88-.305a2.124,2.124,0,0,0,.809-1.667v-.645a2.127,2.127,0,1,0-4.254,0v.645a2.124,2.124,0,0,0,.809,1.667l-.879.305A2.9,2.9,0,0,0,0,306.4v1.26a.322.322,0,0,0,.322.322H10.589a.322.322,0,0,0,0-.645h-3.2V306.4a2.258,2.258,0,0,1,1.516-2.131l1.31-.455h1.352l1.31.455a2.258,2.258,0,0,1,1.516,2.131v.938h-2.3a.322.322,0,0,0,0,.645h9.367a.322.322,0,0,0,.322-.322V306.4a2.9,2.9,0,0,0-1.949-2.74ZM2.663,301.045a1.482,1.482,0,1,1,2.965,0v.645a1.482,1.482,0,0,1-2.965,0ZM.644,307.34V306.4a2.257,2.257,0,0,1,1.516-2.131l1.31-.455H4.822l1.31.455a2.236,2.236,0,0,1,1,.692,2.894,2.894,0,0,0-.383,1.439v.938Zm8.765-6.295a1.482,1.482,0,1,1,2.965,0v.645a1.482,1.482,0,0,1-2.965,0Zm6.746,0a1.482,1.482,0,1,1,2.965,0v.645a1.482,1.482,0,0,1-2.965,0Zm4.984,6.295h-6.1V306.4a2.893,2.893,0,0,0-.383-1.439,2.238,2.238,0,0,1,1-.692l1.31-.455h1.352l1.31.455a2.257,2.257,0,0,1,1.516,2.131Zm0,0" transform="translate(0 -286.2)" fill="#858585"/>
      <path id="Path_73" data-name="Path 73" d="M.322,62.46H1.969a.322.322,0,0,0,0-.645H.644V60.548a2.258,2.258,0,0,1,2.223-2.255,2.122,2.122,0,0,0,2.558,0,2.258,2.258,0,0,1,2.223,2.255v1.267H3.484a.322.322,0,0,0,0,.645H7.97a.322.322,0,0,0,.322-.322v-1.59A2.905,2.905,0,0,0,5.96,57.7,2.114,2.114,0,0,0,6.273,56.6V55.65a2.127,2.127,0,1,0-4.254,0V56.6A2.114,2.114,0,0,0,2.332,57.7,2.905,2.905,0,0,0,0,60.548v1.59a.322.322,0,0,0,.322.322Zm2.342-6.81a1.482,1.482,0,1,1,2.965,0V56.6a1.482,1.482,0,0,1-2.965,0Zm0,0" transform="translate(0 -51.246)" fill="#858585"/>
      <path id="Path_74" data-name="Path 74" d="M224.508,0h-8.966a.322.322,0,0,0,0,.645h8.643V9.109H212.714V.645h1.332a.322.322,0,0,0,0-.645h-1.654a.322.322,0,0,0-.322.322v10.57a.322.322,0,0,0,.322.322h12.117a.322.322,0,0,0,.322-.322V.322A.322.322,0,0,0,224.508,0ZM212.714,10.57V9.753h11.472v.816Zm0,0" transform="translate(-203.047)" fill="#858585"/>
      <path id="Path_75" data-name="Path 75" d="M362.861,45.078H366.9a.322.322,0,0,0,0-.645h-4.039a.322.322,0,1,0,0,.645Zm0,0" transform="translate(-347.115 -42.543)" fill="#858585"/>
      <path id="Path_76" data-name="Path 76" d="M362.861,97.59H366.9a.322.322,0,0,0,0-.645h-4.039a.322.322,0,1,0,0,.645Zm0,0" transform="translate(-347.115 -92.821)" fill="#858585"/>
      <path id="Path_77" data-name="Path 77" d="M251.457,147.764a.322.322,0,0,0,.322.322h8.765a.322.322,0,0,0,0-.645h-8.765A.322.322,0,0,0,251.457,147.764Zm0,0" transform="translate(-240.759 -141.169)" fill="#858585"/>
      <path id="Path_78" data-name="Path 78" d="M249.963,30.3A2.041,2.041,0,1,0,252,32.338,2.043,2.043,0,0,0,249.963,30.3Zm0,3.437a1.4,1.4,0,1,1,1.4-1.4A1.4,1.4,0,0,1,249.963,33.734Zm0,0" transform="translate(-237.375 -29.008)" fill="#858585"/>
    </g>
  </g>
</svg>
