<svg xmlns="http://www.w3.org/2000/svg" viewBox="0 0 195.72 129"><defs><style>.cls-1{fill:#fff;}</style></defs><title>Candidate</title><g id="Layer_2" data-name="Layer 2"><g id="Layer_1-2" data-name="Layer 1"><path class="cls-1" d="M195.72,33.3a13.65,13.65,0,0,0-2.81-8.47L177.41,5a13.37,13.37,0,0,0-10.5-5,12.89,12.89,0,0,0-6.86,1.92l-15.12,9.41A13.83,13.83,0,0,1,138,13a12.64,12.64,0,0,1-5.33-1L117.84,4.8a17.77,17.77,0,0,0-7.73-1.62A19.27,19.27,0,0,0,99.24,6.31L97.51,7.52,91.63,4.59a22.26,22.26,0,0,0-9.64-2,23.08,23.08,0,0,0-8.85,1.62L63.05,8.54A18.51,18.51,0,0,1,56.2,9.7a18.49,18.49,0,0,1-6.84-1.16L39.27,4.23a14.56,14.56,0,0,0-5.76-1.12A17.54,17.54,0,0,0,27,4.39,15.09,15.09,0,0,0,21.42,8.2L3,28.78A11.94,11.94,0,0,0,4.21,45.84L21.35,60.47,13.22,69a12.11,12.11,0,0,0,.42,17.16l1.65,1.57a12,12,0,0,0,5.38,2.91,12,12,0,0,0,2.25,14.56h0l1.65,1.58a12.28,12.28,0,0,0,13.18,2.38A12,12,0,0,0,41.12,115l1.65,1.58A12.26,12.26,0,0,0,58,117.85a12.05,12.05,0,0,0,3.17,5.21l1.66,1.58A12.26,12.26,0,0,0,80,124.23l7.19-7.51,9.77,9a12.26,12.26,0,0,0,17.23-.62l1.56-1.67a12.08,12.08,0,0,0,2.73-4.94l3.78,3.49a12.28,12.28,0,0,0,17.25-.64l1.55-1.66a12,12,0,0,0,3.11-6.7,12.44,12.44,0,0,0,3,.42,12.25,12.25,0,0,0,8.94-3.86l1.55-1.67A12,12,0,0,0,161,99.65a12.57,12.57,0,0,0-.33-2.72,12.08,12.08,0,0,0,7.31-3.7l1.56-1.67a12.14,12.14,0,0,0-.63-17.16L166,71.7l26.32-29.09A13.84,13.84,0,0,0,195.72,33.3Zm-172,51.1a5.52,5.52,0,0,1-3.83-1.51l-1.65-1.57a5.52,5.52,0,0,1-.19-7.8L34.7,56.14A5.6,5.6,0,0,1,42.54,56l1.65,1.57s1.7,2.52,1.7,4a5.41,5.41,0,0,1-1,3.12l-18,18.74A5.59,5.59,0,0,1,23.71,84.4ZM37,101.74a5.6,5.6,0,0,1-7.84.19l-1.65-1.58h0a5.53,5.53,0,0,1-.18-7.8s22.2-23.11,22.39-23.33a5.56,5.56,0,0,1,7.66,0L59,70.75a5.53,5.53,0,0,1,.18,7.8Zm18.2,9.83a5.6,5.6,0,0,1-7.84.19l-1.66-1.58a5.5,5.5,0,0,1-.48-7.43L60.7,86.61a5.54,5.54,0,0,1,7.52.08l1.66,1.57a5.52,5.52,0,0,1,.19,7.8Zm29.38-1.7-9.38,9.79a5.55,5.55,0,0,1-4,1.7,5.48,5.48,0,0,1-3.82-1.52l-1.65-1.57a5.52,5.52,0,0,1-.19-7.8l9.38-9.79a5.6,5.6,0,0,1,7.84-.19l1.66,1.58a5.53,5.53,0,0,1,.18,7.8ZM166.11,83.3a5.49,5.49,0,0,1-1.48,3.75l-1.55,1.67a5.6,5.6,0,0,1-7.84.29L129,64.78l-4.53,4.85,28,26a5.51,5.51,0,0,1,.29,7.8l-1.55,1.67a5.58,5.58,0,0,1-7.83.28L117.25,81.14,112.73,86,136,107.49a5.51,5.51,0,0,1,.23,7.73l-1.55,1.66a5.58,5.58,0,0,1-7.84.29L103.61,95.74h0l-4.52,4.86h0l.08.09,11.63,10.72a5.46,5.46,0,0,1,.1,7.56l-1.56,1.67a5.57,5.57,0,0,1-7.82.28L91.4,111.55A12,12,0,0,0,89,97.28L87.34,95.7a12.22,12.22,0,0,0-8.41-3.34c-.23,0-.46.06-.69.07,0-.05,0-.11,0-.17,0-3.19-3.77-8.79-3.77-8.79L72.82,81.9a12.11,12.11,0,0,0-6.13-3.13,12,12,0,0,0-3-12.8L62,64.39a12.22,12.22,0,0,0-8.41-3.34c-.35,0-.7.07-1,.1a12.07,12.07,0,0,0-3.73-8.41h0l-1.65-1.57a12.25,12.25,0,0,0-17.25.41L26,55.68,8.54,40.82A5.33,5.33,0,0,1,8,33.19L26.41,12.61a8.31,8.31,0,0,1,3.07-2.08,11,11,0,0,1,4-.79,8.06,8.06,0,0,1,3.14.59l10.09,4.31a24.93,24.93,0,0,0,9.46,1.7,25,25,0,0,0,9.47-1.7l10.08-4.31A16.49,16.49,0,0,1,82,9.24a16,16,0,0,1,6.66,1.28l2.69,1.35L81.07,19.1A11.88,11.88,0,0,0,76,28.85,11.75,11.75,0,0,0,78.36,36h0l1.36,1.82A13.29,13.29,0,0,0,90.34,43,12.94,12.94,0,0,0,97,41.18l6.15-3.7a10.11,10.11,0,0,1,5.11-1.24,10.73,10.73,0,0,1,6,1.69l17,12.2a170.77,170.77,0,0,1,13.38,10.92l19.7,18.21A5.53,5.53,0,0,1,166.11,83.3Zm21.22-45.12-26.24,29-11.92-11a174.54,174.54,0,0,0-14-11.43l-17-12.2a17.22,17.22,0,0,0-9.91-2.94,16.74,16.74,0,0,0-8.55,2.19l-6.15,3.7a6.37,6.37,0,0,1-3.21.86,6.65,6.65,0,0,1-5.28-2.53L83.7,32h0a5.27,5.27,0,0,1,1.21-7.5l18.19-12.78a12.77,12.77,0,0,1,7-1.92,11.35,11.35,0,0,1,4.82,1l14.81,7.17A19,19,0,0,0,138,19.65,20.31,20.31,0,0,0,148.45,17l15.13-9.41a6.29,6.29,0,0,1,3.33-.92,6.74,6.74,0,0,1,5.25,2.43l15.5,19.85a7.17,7.17,0,0,1,1.42,4.4A7.38,7.38,0,0,1,187.33,38.18Z"/></g></g></svg>