<svg xmlns="http://www.w3.org/2000/svg" viewBox="0 0 138.33 156"><defs><style>.cls-1{fill:#fff;}</style></defs><title>Employer</title><g id="Layer_2" data-name="Layer 2"><g id="Layer_1-2" data-name="Layer 1"><path class="cls-1" d="M119.91,103.13c-7.91-7-18.23-12.12-29.73-15,.5-.3,1-.62,1.48-.94,8.86-5.93,14.73-14.55,16.41-23.79a13.69,13.69,0,0,0,8.53-6.75,14.33,14.33,0,0,0,.23-14,3.06,3.06,0,0,0-2.67-1.56h-5.41c.38-11.8-2.9-21.81-9.59-29.11-7-7.65-17.68-12-29.3-12A44.87,44.87,0,0,0,42.33,9.2,33.45,33.45,0,0,0,29.45,35.85v5.29H24.23a3.05,3.05,0,0,0-2.66,1.55,14.55,14.55,0,0,0,.15,14.22,13,13,0,0,0,8.22,6.52A35.49,35.49,0,0,0,41.86,83.67,43.21,43.21,0,0,0,48,88.19a76.1,76.1,0,0,0-16.7,6.22,3.07,3.07,0,0,0,2.81,5.46,73,73,0,0,1,21.94-7.05l4.41,12.07-6.82,35.63a3.08,3.08,0,0,0,.13,1.62l2.66,7.4A207.16,207.16,0,0,1,26,145.67V132a3.07,3.07,0,0,0-6.14,0V144.3c-4.66-1.12-9.19-2.39-13.55-3.83a47.32,47.32,0,0,1,9.78-25.92,3.08,3.08,0,0,0-4.86-3.77A53.83,53.83,0,0,0,0,142.52a3.08,3.08,0,0,0,2.07,3c17.59,6.09,37.9,9.67,58.73,10.34h0c2.7.1,5.53.13,8.36.12h1.36c2.37,0,4.72,0,7-.12h0c20.84-.67,41.15-4.25,58.73-10.34a3.08,3.08,0,0,0,2.07-3C137.75,126.84,131.39,113.21,119.91,103.13Zm-47.4-1.57h-6.7L63,93.74a38.27,38.27,0,0,0,6,.53h.25a36.23,36.23,0,0,0,6.12-.53Zm38.71-47.88a8,8,0,0,1-2.66,2.92V47.29h3.57A8.69,8.69,0,0,1,111.22,53.68ZM35.6,35.85c0-19.29,17.65-29.7,34.26-29.7,9.9,0,18.93,3.65,24.77,10,5.61,6.12,8.34,14.71,8,25h-26C64.64,41.14,55.3,37.57,48,30.23a3.08,3.08,0,0,0-2.18-.9,3,3,0,0,0-1.18.23,3.08,3.08,0,0,0-1.89,2.87c0,2.88-.67,5.06-2.07,6.48a8.61,8.61,0,0,1-5.09,2.21V35.85ZM27.09,53.92a8.84,8.84,0,0,1-.84-6.63h3.21v9.27A7.52,7.52,0,0,1,27.09,53.92ZM35.6,58V47.29a14.94,14.94,0,0,0,9.45-4,12.63,12.63,0,0,0,3-4.82c7.75,6,17.14,8.87,28.55,8.87h25.86V58c0,9.17-5.3,18.18-14.18,24.12a34.58,34.58,0,0,1-19.21,6,33.4,33.4,0,0,1-9.67-1.51,3.83,3.83,0,0,0-.68-.21C45.72,82.12,35.6,70.47,35.6,58Zm33.59,91.87h0c-2,0-4.08,0-6.07,0l-3.22-9,6.35-33.14h5.91l6.34,33.14-3.21,9C73.26,149.85,71.22,149.86,69.19,149.85Zm48.23-5.29V132a3.08,3.08,0,0,0-6.15,0v13.89a208.29,208.29,0,0,1-29.4,3.65l2.66-7.4a3.08,3.08,0,0,0,.13-1.62l-6.82-35.63L82.25,92.8c23.25,3.73,47.57,18,49.81,47.67C127.36,142,122.46,143.38,117.42,144.56Z"/><path class="cls-1" d="M21.91,107.28a3.06,3.06,0,0,0,1.7-.52l.05,0a3.07,3.07,0,1,0-3.41-5.11l-.06,0a3.08,3.08,0,0,0,1.72,5.63Z"/></g></g></svg>