<svg xmlns="http://www.w3.org/2000/svg" viewBox="0 0 128 179.59"><defs><style>.cls-1{fill:#fff;}</style></defs><title>Explore</title><g id="Layer_2" data-name="Layer 2"><g id="Layer_1-2" data-name="Layer 1"><path class="cls-1" d="M119.27,118.62V99.93L111.34,103l0,0-.19-.34a20.43,20.43,0,0,0-13.5-9L78.55,90.17v-1.5a29,29,0,0,0,14-19.47,11.62,11.62,0,0,0,9.28-11.34V29.29a18.16,18.16,0,0,0-13-17.41l-1.46-1.45A35.87,35.87,0,0,0,26.18,35.62V57.86A11.62,11.62,0,0,0,35.46,69.2a29,29,0,0,0,14,19.47v1.5L30.37,93.62a20.45,20.45,0,0,0-13.49,9l-.17.42-8-3.08v18.69A8.72,8.72,0,0,0,0,127.3v11.57a8.71,8.71,0,0,0,8.73,8.68v10.66L64,179.59l55.27-21.38V147.55a8.71,8.71,0,0,0,8.73-8.68V127.3A8.72,8.72,0,0,0,119.27,118.62ZM84,97l12.59,2.28a14.59,14.59,0,0,1,9.19,5.83L77.63,116ZM55.52,91.32a29.17,29.17,0,0,0,17,0L64,97.65Zm4,10.25-5.94,5.91L49.78,96l1.86-.34Zm16.79-5.91,1.86.33-3.85,11.49-5.94-5.9ZM93.09,62.85v-10a5.72,5.72,0,0,1,0,10Zm-58.18,0a5.72,5.72,0,0,1,0-10Zm0-19.45v3.3A11.66,11.66,0,0,0,32,47.9V35.62A30,30,0,0,1,83.22,14.53l2.56,2.55.79.19a12.38,12.38,0,0,1,9.43,12V47.9a11.66,11.66,0,0,0-2.91-1.2V43.4H83.87a25.36,25.36,0,0,1-20.15-10l-2.31-3.07-5.78,5.75A25.12,25.12,0,0,1,37.82,43.4Zm5.82,20.25V49.05a30.83,30.83,0,0,0,19-8.9L60.87,39a31.27,31.27,0,0,0,23,10.15h3.4V63.65a23.27,23.27,0,0,1-46.54,0ZM31.41,99.31,44,97l6.37,19L22.22,105.14A14.59,14.59,0,0,1,31.41,99.31ZM5.82,138.87V127.3a2.9,2.9,0,0,1,2.91-2.89,8.68,8.68,0,1,1,0,17.36A2.9,2.9,0,0,1,5.82,138.87Zm55.27,33.38-46.54-18v-7.93a14.41,14.41,0,0,0,0-26.48V108.38l46.54,18Zm-8.64-55.41L64,105.35l11.55,11.49L64,121.3Zm61,37.41-46.54,18V126.39l46.54-18v11.47a14.41,14.41,0,0,0,0,26.48Zm8.73-15.38a2.9,2.9,0,0,1-2.91,2.9,8.68,8.68,0,1,1,0-17.36,2.9,2.9,0,0,1,2.91,2.89Z"/></g></g></svg>