<svg xmlns="http://www.w3.org/2000/svg" viewBox="0 0 152.6 176"><defs><style>.cls-1{fill:#fff;}</style></defs><title>Investorr</title><g id="Layer_2" data-name="Layer 2"><g id="Layer_1-2" data-name="Layer 1"><path class="cls-1" d="M36.59,24.68a3.39,3.39,0,0,0,2.32-.91h0a3.43,3.43,0,1,0-2.33.91Z"/><path class="cls-1" d="M152.59,69.28A70.52,70.52,0,0,0,45.9,10a3.44,3.44,0,0,0,3.54,5.9,63.52,63.52,0,0,1,31.61-9h1a63.71,63.71,0,0,1,63.63,62.51c.26,15.63-5.19,33.82-13.91,46.35a34.08,34.08,0,0,0-6.11,19.54v9.82L66.48,167.58v-8.75a13.43,13.43,0,0,0-13.41-13.41H41.43a13.5,13.5,0,0,1-13.49-13.49V112.28a3.44,3.44,0,0,0-3.44-3.44H8L18.35,71.42a3.57,3.57,0,0,0,.12-.92A63.24,63.24,0,0,1,30.25,33.61a3.44,3.44,0,0,0-5.6-4A70,70,0,0,0,11.6,70L.13,111.36a3.42,3.42,0,0,0,3.31,4.35H21.06v16.22A20.4,20.4,0,0,0,41.43,152.3H53.07a6.54,6.54,0,0,1,6.53,6.53v13.73a3.45,3.45,0,0,0,4.66,3.22l66.09-25.1a3.42,3.42,0,0,0,2.22-3.21V135.28a27.22,27.22,0,0,1,4.89-15.62C147.09,105.82,152.88,86.51,152.59,69.28Z"/><path class="cls-1" d="M45.48,72.8A36.48,36.48,0,0,0,62,103.4a8.8,8.8,0,0,1,3.72,5.39v14.94a3.44,3.44,0,0,0,1,2.43l6.75,6.75a3.43,3.43,0,0,0,2.43,1h12.3a3.41,3.41,0,0,0,2.43-1l6.75-6.75a3.41,3.41,0,0,0,1-2.43V108.79a8.56,8.56,0,0,1,3.64-5.34,36.6,36.6,0,0,0-20-67.25h0A36.64,36.64,0,0,0,45.48,72.8Zm46.05,49.51-4.73,4.74H77.35l-4.74-4.74V111.87H91.53v10.44ZM82.06,43.08h0A29.71,29.71,0,0,1,98.29,97.69a15.41,15.41,0,0,0-5.9,7.31H71.75a15.58,15.58,0,0,0-6-7.34A29.72,29.72,0,0,1,82.06,43.08Z"/><path class="cls-1" d="M85.51,26.41V17.19a3.44,3.44,0,0,0-6.88,0v9.22a3.44,3.44,0,0,0,6.88,0Z"/><path class="cls-1" d="M27.87,72.82a3.44,3.44,0,0,0,3.44,3.44H36.6a3.44,3.44,0,1,0,0-6.88H31.31A3.44,3.44,0,0,0,27.87,72.82Z"/><path class="cls-1" d="M132.89,76.2a3.44,3.44,0,1,0,0-6.87h-6.06a3.44,3.44,0,1,0,0,6.87Z"/><path class="cls-1" d="M116.62,43.09l3.81-3.8a3.44,3.44,0,1,0-4.86-4.86l-3.81,3.8a3.44,3.44,0,0,0,0,4.86,3.43,3.43,0,0,0,4.86,0Z"/><path class="cls-1" d="M47.5,43.09a3.43,3.43,0,0,0,4.86,0,3.44,3.44,0,0,0,0-4.86l-3.77-3.76a3.44,3.44,0,1,0-4.86,4.86Z"/></g></g></svg>