<svg xmlns="http://www.w3.org/2000/svg" viewBox="0 0 163.06 163.06"><defs><style>.cls-1{fill:#fff;}</style></defs><title>PIA</title><g id="Layer_2" data-name="Layer 2"><g id="Layer_1-2" data-name="Layer 1"><path class="cls-1" d="M132.81,111.69a3.32,3.32,0,1,0-4.69,4.7l6.45,6.45a8.18,8.18,0,0,1,0,11.56l-.17.17a8.18,8.18,0,0,1-11.56,0l-6.45-6.45a3.33,3.33,0,0,0-4.19-.42,54.72,54.72,0,0,1-19.71,8.17,3.34,3.34,0,0,0-2.67,3.26v9.11a8.19,8.19,0,0,1-8.17,8.18h-.24a8.19,8.19,0,0,1-8.18-8.18v-9.11a3.33,3.33,0,0,0-2.66-3.26,54.72,54.72,0,0,1-19.71-8.17,3.33,3.33,0,0,0-4.19.42l-6.45,6.45a8.2,8.2,0,0,1-11.57,0l-.16-.17a8.16,8.16,0,0,1,0-11.56l6.45-6.45a3.33,3.33,0,0,0,.42-4.19,54.92,54.92,0,0,1-8.18-19.71,3.32,3.32,0,0,0-3.25-2.67H14.82a8.19,8.19,0,0,1-8.18-8.17v-.24a8.19,8.19,0,0,1,8.18-8.18h9.11a3.31,3.31,0,0,0,3.25-2.66,54.92,54.92,0,0,1,8.18-19.71,3.33,3.33,0,0,0-.42-4.19l-6.45-6.45a8.17,8.17,0,0,1,0-11.57l.16-.16a8.17,8.17,0,0,1,11.57,0l6.45,6.45a3.32,3.32,0,0,0,4.69-4.69L44.91,23.8A14.81,14.81,0,0,0,24,23.8L23.8,24a14.81,14.81,0,0,0,0,20.95l4.57,4.57a61.41,61.41,0,0,0-7.1,17.12H14.82A14.83,14.83,0,0,0,0,81.41v.24A14.84,14.84,0,0,0,14.82,96.46h6.45a61.34,61.34,0,0,0,7.1,17.11l-4.57,4.57a14.81,14.81,0,0,0,0,21l.16.17a14.81,14.81,0,0,0,20.95,0l4.57-4.57a61.41,61.41,0,0,0,17.12,7.1v6.45a14.83,14.83,0,0,0,14.81,14.82h.24a14.84,14.84,0,0,0,14.81-14.82v-6.45a61.22,61.22,0,0,0,17.11-7.1l4.57,4.57a14.82,14.82,0,0,0,21,0l.16-.17a14.81,14.81,0,0,0,0-21Z"/><path class="cls-1" d="M148.24,66.6h-6.45a61.41,61.41,0,0,0-7.1-17.12l4.57-4.57a14.82,14.82,0,0,0,0-20.95l-.16-.16a14.82,14.82,0,0,0-21,0l-4.57,4.57a61.22,61.22,0,0,0-17.11-7.1V14.82A14.84,14.84,0,0,0,81.64,0h-.23A14.83,14.83,0,0,0,66.6,14.82v9.11a3.32,3.32,0,1,0,6.63,0V14.82a8.19,8.19,0,0,1,8.18-8.18h.23a8.19,8.19,0,0,1,8.18,8.18v9.11a3.32,3.32,0,0,0,2.67,3.25,54.92,54.92,0,0,1,19.71,8.18,3.33,3.33,0,0,0,4.19-.42l6.45-6.45a8.16,8.16,0,0,1,11.56,0l.17.16a8.2,8.2,0,0,1,0,11.57l-6.45,6.45a3.32,3.32,0,0,0-.42,4.19,54.72,54.72,0,0,1,8.17,19.71,3.33,3.33,0,0,0,3.26,2.66h9.11a8.19,8.19,0,0,1,8.18,8.18v.24a8.19,8.19,0,0,1-8.18,8.17h-9.11a3.32,3.32,0,0,0,0,6.64h9.11a14.84,14.84,0,0,0,14.82-14.81v-.24A14.83,14.83,0,0,0,148.24,66.6Z"/><path class="cls-1" d="M81.53,94a12.38,12.38,0,0,1-7.87-2.78,3.31,3.31,0,1,0-4.17,5.15,19.13,19.13,0,1,0-7.1-14.87,3.32,3.32,0,0,0,6.64,0A12.5,12.5,0,1,1,81.53,94Z"/></g></g></svg>